<svg xmlns="http://www.w3.org/2000/svg" viewBox="0 0 19.886 20"><title>aggregation_1</title><g id="Schrift"><rect width="13.843" height="1" x=".015" y=".25"/><rect width="13.843" height="1" x=".015" y="6.417"/><rect width="13.843" height="1" x=".015" y="12.583"/><rect width="13.843" height="1" x=".015" y="18.75"/><path d="M19.869,3.833A3.4506,3.4506,0,0,0,16.577.25v1a2.45376,2.45376,0,0,1,2.292,2.583,2.45405,2.45405,0,0,1-2.292,2.584v1A3.45087,3.45087,0,0,0,19.869,3.833Z"/><path d="M16.577,12.583v1a2.45405,2.45405,0,0,1,2.292,2.584,2.45376,2.45376,0,0,1-2.292,2.583v1a3.4506,3.4506,0,0,0,3.292-3.583A3.45087,3.45087,0,0,0,16.577,12.583Z"/></g></svg>