<svg xmlns="http://www.w3.org/2000/svg" viewBox="0 0 19.884 20"><title>aggregation-close_1</title><g id="Schrift"><rect width="13.843" height="1" x=".015" y=".25"/><rect width="13.843" height="1" x=".015" y="6.417"/><rect width="8.042" height="1" x=".015" y="12.584"/><rect width="8.042" height="1" x=".015" y="18.75"/><path d="M19.869,3.834A3.45087,3.45087,0,0,0,16.577.25v1a2.45406,2.45406,0,0,1,2.292,2.584,2.45377,2.45377,0,0,1-2.292,2.583v1A3.4506,3.4506,0,0,0,19.869,3.834Z"/><polygon points="18.213 12.293 15.62 14.886 13.027 12.293 12.32 13 14.913 15.593 12.32 18.186 13.027 18.893 15.62 16.3 18.213 18.893 18.92 18.186 16.327 15.593 18.92 13 18.213 12.293"/></g></svg>