<svg xmlns="http://www.w3.org/2000/svg" xmlns:svg="http://www.w3.org/2000/svg" id="Layer_2" width="97.875" height="97.875" x="0" y="0" enable-background="new 0 0 97.875 97.875" version="1.1" viewBox="0 0 97.875 97.875" xml:space="preserve"><metadata id="metadata3360"/><path id="path3352" fill="#5F5F5F" d="M48.967,7.034C72.25,7.053,91.184,25.941,91.165,49.141 c-0.019,23.205-18.982,42.068-42.267,42.048C25.605,91.17,6.678,72.275,6.697,49.073C6.716,25.872,25.674,7.015,48.967,7.034 M48.973,0.437C22.032,0.415,0.097,22.23,0.075,49.067C0.053,75.909,21.952,97.768,48.893,97.788 c26.938,0.022,48.871-21.799,48.895-48.641C97.809,22.31,75.911,0.459,48.973,0.437" display="none"/><path style="fill:#000;fill-opacity:1;stroke:none;stroke-opacity:1" id="rect4151" d="M 25.234375 18.164062 L 18.164062 25.234375 L 41.867188 48.9375 L 18.164062 72.640625 L 25.234375 79.710938 L 48.9375 56.007812 L 72.640625 79.710938 L 79.710938 72.640625 L 56.007812 48.9375 L 79.710938 25.234375 L 72.640625 18.164062 L 48.9375 41.867188 L 25.234375 18.164062 z"/></svg>