<svg xmlns="http://www.w3.org/2000/svg" xmlns:svg="http://www.w3.org/2000/svg" id="svg6" width="28" height="28" version="1.1" viewBox="0 0 28 28"><metadata id="metadata12"/><title id="title2">uE001-error</title><g id="g62" transform="matrix(1.4000839,0,0,1.4000839,-5.6067733,-5.630479)"><path id="path46" d="m 14,15.637 c -0.835,0 -1.512,-0.649 -1.512,-1.449 V 7.812 c 0,-0.8 0.677,-1.449 1.512,-1.449 0.835,0 1.511,0.649 1.511,1.449 v 6.376 c 0.001,0.8 -0.677,1.448 -1.511,1.448 z"/><path id="path4" d="m 14,21.637 c -0.399,0 -0.786,-0.16 -1.071,-0.441 -0.281,-0.281 -0.441,-0.671 -0.441,-1.07 0,-0.399 0.16,-0.789 0.441,-1.07 0.281,-0.281 0.671,-0.442 1.071,-0.442 0.399,0 0.786,0.161 1.069,0.442 0.281,0.284 0.442,0.671 0.442,1.07 0,0.399 -0.161,0.786 -0.442,1.07 -0.283,0.281 -0.674,0.441 -1.069,0.441 z"/></g></svg>